<svg width="181" height="128" viewBox="0 0 181 128" fill="none" xmlns="http://www.w3.org/2000/svg">
<path d="M11.384 54.128C11.4693 54.4693 11.5547 54.7893 11.64 55.088C11.768 55.344 11.832 55.5573 11.832 55.728C11.832 55.8987 11.768 55.984 11.64 55.984C11.512 55.984 11.256 55.8347 10.872 55.536C10.0187 54.9813 9.10133 54.3413 8.12 53.616C7.13867 52.848 6.2 51.9733 5.304 50.992C4.36533 49.968 3.55467 48.816 2.872 47.536C2.18933 46.2133 1.72 44.72 1.464 43.056C0.781333 38.704 0.888 34.7787 1.784 31.28C2.68 27.7813 4.06667 24.7093 5.944 22.064C7.82133 19.4187 10.0187 17.2213 12.536 15.472C15.0533 13.68 17.656 12.3147 20.344 11.376C22.264 10.6933 24.2267 10.2453 26.232 10.032C28.28 9.776 29.9867 9.64799 31.352 9.64799C34.9787 9.56266 38.7973 9.73333 42.808 10.16C46.8613 10.5867 50.808 11.0133 54.648 11.44C58.5307 11.824 62.1787 12.1013 65.592 12.272C69.0053 12.4 71.8853 12.1653 74.232 11.568C75.384 11.2267 76.5147 10.8 77.624 10.288C78.7333 9.776 79.7147 9.11466 80.568 8.30399C81.464 7.45066 82.1467 6.448 82.616 5.296C83.0853 4.14399 83.2773 2.75733 83.192 1.13599C83.32 0.751996 83.512 0.623998 83.768 0.751999C84.024 0.879995 84.2587 1.15733 84.472 1.584C84.728 2.01067 84.9627 2.52266 85.176 3.12C85.432 3.67466 85.5813 4.144 85.624 4.528C86.1787 7.30133 86.1787 9.66933 85.624 11.632C85.0693 13.552 84.152 15.152 82.872 16.432C81.6347 17.712 80.0773 18.672 78.2 19.312C76.3653 19.952 74.424 20.3787 72.376 20.592C69.9013 20.8053 67.2773 20.7627 64.504 20.464C61.7733 20.1227 58.936 19.6747 55.992 19.12C53.0907 18.5653 50.1253 17.968 47.096 17.328C44.1093 16.6453 41.144 16.0693 38.2 15.6C38.8827 16.2827 39.608 17.0933 40.376 18.032C41.144 18.928 41.8267 19.888 42.424 20.912C43.0213 21.8933 43.4907 22.8747 43.832 23.856C44.216 24.8373 44.3867 25.7547 44.344 26.608C43.96 29.9787 43.1067 33.4987 41.784 37.168C40.504 40.8373 39.0533 44.5707 37.432 48.368C35.8107 52.1227 34.1893 55.8773 32.568 59.632C30.9467 63.3867 29.6027 67.12 28.536 70.832C27.512 74.5013 26.8933 78.0853 26.68 81.584C26.5093 85.04 27.064 88.3253 28.344 91.44C28.0453 91.696 27.6187 91.6747 27.064 91.376C26.552 91.12 25.976 90.6293 25.336 89.904C24.7387 89.1787 24.12 88.2613 23.48 87.152C22.8827 86.0427 22.3707 84.8267 21.944 83.504C21.2613 81.456 20.9627 79.1947 21.048 76.72C21.176 74.2453 21.5387 71.664 22.136 68.976C22.7333 66.2453 23.5227 63.4507 24.504 60.592C25.528 57.6907 26.5947 54.7893 27.704 51.888C28.856 48.9867 30.008 46.128 31.16 43.312C32.312 40.496 33.336 37.808 34.232 35.248C35.1707 32.6453 35.9173 30.2133 36.472 27.952C37.0267 25.648 37.2827 23.5787 37.24 21.744C37.1973 21.5307 37.1333 21.1893 37.048 20.72C37.0053 20.208 36.9413 19.6533 36.856 19.056C36.8133 18.416 36.7493 17.776 36.664 17.136C36.5787 16.496 36.5147 15.9413 36.472 15.472C33.4 15.088 30.456 14.9173 27.64 14.96C24.824 14.96 22.2213 15.4933 19.832 16.56C16.888 17.7973 14.5627 19.6747 12.856 22.192C11.192 24.6667 10.0613 27.5893 9.464 30.96C8.824 34.3307 8.696 38 9.08 41.968C9.42133 45.936 10.1893 49.9893 11.384 54.128ZM52.856 52.976C54.0933 53.104 55.0747 53.8507 55.8 55.216C55.8 54.2773 55.736 53.616 55.608 53.232C55.3947 52.7627 55.4373 52.5067 55.736 52.464C56.0347 52.3787 56.4613 52.4213 57.016 52.592C57.6133 52.72 58.2533 53.0187 58.936 53.488C59.6613 53.9147 60.3227 54.4267 60.92 55.024C61.5173 55.5787 61.9867 56.24 62.328 57.008C62.712 57.776 62.8613 58.544 62.776 59.312C62.7333 59.7387 62.52 60.592 62.136 61.872C61.752 63.1093 61.304 64.56 60.792 66.224C60.3227 67.888 59.832 69.6373 59.32 71.472C58.8507 73.264 58.4453 74.9493 58.104 76.528C57.8053 78.064 57.6347 79.3653 57.592 80.432C57.592 81.4987 57.848 82.0747 58.36 82.16C58.872 82.3307 59.512 81.8827 60.28 80.816C61.0907 79.7067 61.944 78.32 62.84 76.656C63.736 74.9493 64.632 73.1147 65.528 71.152C66.424 69.1467 67.2133 67.312 67.896 65.648C68.0667 65.1787 68.28 64.9013 68.536 64.816C68.792 64.7307 69.0267 64.7733 69.24 64.944C69.496 65.1147 69.688 65.392 69.816 65.776C69.9867 66.1173 70.0293 66.544 69.944 67.056C69.3893 68.8907 68.7067 70.896 67.896 73.072C67.0853 75.248 66.1467 77.296 65.08 79.216C64.0133 81.136 62.8827 82.7573 61.688 84.08C60.4933 85.4027 59.256 86.1067 57.976 86.192C57.1653 86.2347 56.4187 86.064 55.736 85.68C55.0533 85.296 54.456 84.8053 53.944 84.208C53.432 83.6107 53.0267 82.9493 52.728 82.224C52.4293 81.456 52.216 80.752 52.088 80.112C51.4053 81.6907 50.6373 83.0347 49.784 84.144C48.9733 85.2533 48.0133 85.8507 46.904 85.936C45.624 85.9787 44.4507 85.5093 43.384 84.528C42.36 83.504 41.5707 82.0747 41.016 80.24C40.4187 78.3627 40.1627 76.144 40.248 73.584C40.2907 70.9813 40.76 68.1013 41.656 64.944C42.168 63.28 42.744 61.7013 43.384 60.208C44.0667 58.7147 44.8773 57.4133 45.816 56.304C46.7547 55.1947 47.8 54.3413 48.952 53.744C50.104 53.104 51.4053 52.848 52.856 52.976ZM46.52 82.416C47.16 82.3733 47.7573 81.9893 48.312 81.264C48.8667 80.496 49.4 79.5147 49.912 78.32C50.424 77.1253 50.936 75.7813 51.448 74.288C52.0027 72.7947 52.5573 71.216 53.112 69.552C53.4107 68.1013 53.7093 66.6507 54.008 65.2C54.3493 63.7067 54.6693 62.2987 54.968 60.976C55.0107 60.464 55.0533 59.9093 55.096 59.312C55.1387 58.672 55.1387 58.096 55.096 57.584C55.0533 57.072 54.9253 56.6453 54.712 56.304C54.5413 55.9627 54.2427 55.792 53.816 55.792C53.3467 55.792 52.8133 56.1333 52.216 56.816C51.6187 57.456 50.9787 58.3307 50.296 59.44C49.656 60.5067 49.016 61.744 48.376 63.152C47.736 64.5173 47.1813 65.904 46.712 67.312C46.1147 69.0613 45.6667 70.8533 45.368 72.688C45.112 74.48 44.984 76.1227 44.984 77.616C45.0267 79.0667 45.176 80.24 45.432 81.136C45.688 82.032 46.0507 82.4587 46.52 82.416ZM74.321 86C73.681 86 72.9983 85.6587 72.273 84.976C71.5903 84.2933 71.0357 83.312 70.609 82.032C70.353 83.0133 69.969 84.6133 69.457 86.832C68.945 89.0933 68.3903 91.6533 67.793 94.512C67.153 97.3707 66.4917 100.357 65.809 103.472C65.0837 106.587 64.4223 109.509 63.825 112.24C63.185 115.013 62.6303 117.403 62.161 119.408C61.6917 121.413 61.3717 122.757 61.201 123.44C60.817 125.147 60.561 126.213 60.433 126.64C60.2623 127.109 60.0277 127.344 59.729 127.344C58.8757 127.344 58.2357 126.96 57.809 126.192C57.3823 125.467 57.105 124.613 56.977 123.632C56.8063 122.693 56.7637 121.733 56.849 120.752C56.8917 119.813 56.9557 119.131 57.041 118.704C57.2117 117.851 57.553 116.272 58.065 113.968C58.5343 111.707 59.1317 108.933 59.857 105.648C60.5397 102.405 61.3077 98.8427 62.161 94.96C62.9717 91.0773 63.8037 87.152 64.657 83.184C65.4677 79.1733 66.257 75.2693 67.025 71.472C67.7503 67.632 68.3903 64.176 68.945 61.104C69.5423 58.032 69.9903 55.4507 70.289 53.36C70.5877 51.2693 70.6943 49.9467 70.609 49.392C70.481 48.7093 70.801 48.4747 71.569 48.688C72.337 48.9013 73.2117 49.3707 74.193 50.096C75.1743 50.7787 76.049 51.632 76.817 52.656C77.585 53.68 77.905 54.704 77.777 55.728V55.792C79.057 54.256 80.8277 53.488 83.089 53.488C83.601 53.488 84.1343 53.6373 84.689 53.936C85.2863 54.192 85.841 54.576 86.353 55.088C86.9077 55.5573 87.377 56.176 87.761 56.944C88.145 57.6693 88.401 58.544 88.529 59.568C89.041 63.3653 88.8703 67.0133 88.017 70.512C87.1637 74.0107 85.8623 77.04 84.113 79.6C86.033 79.0453 87.697 77.8933 89.105 76.144C90.513 74.3947 91.601 72.624 92.369 70.832L94.737 65.456C94.865 65.1147 95.057 64.944 95.313 64.944C95.6117 64.944 95.889 65.0507 96.145 65.264C96.401 65.4347 96.593 65.712 96.721 66.096C96.849 66.4373 96.8917 66.8 96.849 67.184C96.6357 68.2933 96.3157 69.3173 95.889 70.256C95.505 71.152 95.0783 72.048 94.609 72.944C94.0543 74.3947 93.329 75.6533 92.433 76.72C91.5797 77.7867 90.577 78.8533 89.425 79.92C88.2303 81.0293 86.929 81.8827 85.521 82.48C84.113 83.0347 82.705 83.248 81.297 83.12C80.1877 84.0587 79.057 84.784 77.905 85.296C76.753 85.808 75.5583 86.0427 74.321 86ZM80.657 56.688C79.8463 56.688 79.057 57.2853 78.289 58.48C77.521 59.6747 76.7743 61.1893 76.049 63.024L75.985 63.6C75.7717 64.6667 75.5797 65.7547 75.409 66.864C75.281 67.9307 75.2383 69.04 75.281 70.192C75.3237 71.3013 75.4943 72.4533 75.793 73.648C76.1343 74.8 76.689 75.952 77.457 77.104C77.713 77.616 78.0117 78.0213 78.353 78.32C78.993 77.2107 79.6117 75.9307 80.209 74.48C80.8063 73.0293 81.3183 71.472 81.745 69.808C82.1717 68.144 82.4703 66.416 82.641 64.624C82.8117 62.7893 82.7903 60.9547 82.577 59.12C82.4917 58.1813 82.2357 57.5413 81.809 57.2C81.425 56.8587 81.041 56.688 80.657 56.688ZM74.321 82.096C75.0463 82.096 75.8357 81.6267 76.689 80.688C75.8783 79.792 75.1743 78.6827 74.577 77.36C73.9797 76.0373 73.5317 74.3947 73.233 72.432L72.145 76.336C72.017 77.4453 71.9957 78.3627 72.081 79.088C72.209 79.8133 72.401 80.4107 72.657 80.88C72.913 81.3067 73.1903 81.6267 73.489 81.84C73.7877 82.0107 74.065 82.096 74.321 82.096ZM93.132 73.968C93.132 73.1573 93.2813 71.9627 93.58 70.384C93.8787 68.7627 94.2627 66.8853 94.732 64.752C95.2013 62.6187 95.7133 60.3147 96.268 57.84C96.8653 55.3653 97.4413 52.8907 97.996 50.416C98.5933 47.9413 99.148 45.5733 99.66 43.312C100.172 41.008 100.62 38.9387 101.004 37.104C99.7667 37.488 98.8067 37.7867 98.124 38C97.4413 38.1707 96.7373 38.3627 96.012 38.576C95.3293 38.7893 94.4973 39.088 93.516 39.472C92.5347 39.8133 91.1693 40.3467 89.42 41.072C88.9933 41.2427 88.588 41.328 88.204 41.328C87.82 41.2853 87.6067 41.136 87.564 40.88C87.4787 40.624 87.628 40.2827 88.012 39.856C88.396 39.3867 89.1213 38.832 90.188 38.192C91.5533 37.296 93.196 36.272 95.116 35.12C97.036 33.9253 99.3187 32.8373 101.964 31.856C102.305 30.2773 102.519 28.9547 102.604 27.888C102.689 26.8213 102.647 26.096 102.476 25.712C102.22 25.1573 102.348 24.8587 102.86 24.816C103.415 24.7733 104.076 24.9653 104.844 25.392C105.655 25.8187 106.487 26.416 107.34 27.184C108.193 27.952 108.812 28.848 109.196 29.872C110.903 29.5307 112.673 29.2747 114.508 29.104C116.343 28.9333 118.199 28.9547 120.076 29.168C120.289 27.2907 120.311 26.1387 120.14 25.712C119.884 25.072 120.055 24.7733 120.652 24.816C121.292 24.8587 122.06 25.136 122.956 25.648C123.852 26.16 124.727 26.8853 125.58 27.824C126.476 28.7627 127.031 29.8293 127.244 31.024C128.737 31.664 130.039 32.5173 131.148 33.584C131.788 34.352 132.321 35.1413 132.748 35.952C133.175 36.72 133.452 37.4027 133.58 38C133.751 38.5547 133.793 38.9813 133.708 39.28C133.623 39.536 133.409 39.5573 133.068 39.344C132.257 38.704 131.276 38.1707 130.124 37.744C129.015 37.3173 127.799 36.9547 126.476 36.656C126.22 38.1493 125.815 40.0907 125.26 42.48C124.748 44.8267 124.172 47.3653 123.532 50.096C122.935 52.784 122.295 55.5573 121.612 58.416C120.972 61.232 120.353 63.856 119.756 66.288C119.201 68.72 118.711 70.8533 118.284 72.688C117.857 74.48 117.601 75.696 117.516 76.336C117.26 77.4027 117.175 78.256 117.26 78.896C117.388 79.536 117.601 80.0267 117.9 80.368C118.199 80.6667 118.583 80.8587 119.052 80.944C119.521 80.9867 119.991 80.944 120.46 80.816C121.015 80.688 121.697 80.1547 122.508 79.216C123.319 78.2347 124.172 77.04 125.068 75.632C126.007 74.1813 126.903 72.5813 127.756 70.832C128.652 69.0827 129.441 67.3547 130.124 65.648C130.295 65.2213 130.508 64.9653 130.764 64.88C131.02 64.752 131.255 64.7733 131.468 64.944C131.724 65.1147 131.916 65.392 132.044 65.776C132.215 66.1173 132.236 66.544 132.108 67.056C131.553 68.8907 130.828 70.896 129.932 73.072C129.079 75.2053 128.119 77.2107 127.052 79.088C125.985 80.9653 124.833 82.5653 123.596 83.888C122.359 85.168 121.1 85.872 119.82 86C118.369 86.1707 117.111 85.9573 116.044 85.36C114.977 84.72 114.081 83.9093 113.356 82.928C112.673 81.9467 112.119 80.8373 111.692 79.6C111.265 78.3627 110.988 77.2533 110.86 76.272C110.263 77.552 109.601 78.768 108.876 79.92C108.193 81.0293 107.468 82.032 106.7 82.928C105.975 83.824 105.207 84.5493 104.396 85.104C103.628 85.6587 102.881 85.9573 102.156 86C100.364 86.1707 98.8707 85.808 97.676 84.912C96.4813 83.9733 95.5427 82.8213 94.86 81.456C94.1773 80.0907 93.708 78.704 93.452 77.296C93.196 75.888 93.0893 74.7787 93.132 73.968ZM108.94 35.888C108.641 37.3387 108.236 39.28 107.724 41.712C107.212 44.1013 106.636 46.704 105.996 49.52C105.399 52.336 104.78 55.2373 104.14 58.224C103.5 61.168 102.881 63.92 102.284 66.48C101.687 68.9973 101.175 71.216 100.748 73.136C100.321 75.0133 100.023 76.272 99.852 76.912C99.6387 77.9787 99.5533 78.832 99.596 79.472C99.6813 80.112 99.8947 80.6027 100.236 80.944C100.577 81.2853 100.961 81.4773 101.388 81.52C101.857 81.5627 102.348 81.5413 102.86 81.456C103.372 81.328 103.991 80.816 104.716 79.92C105.484 78.9813 106.252 77.8293 107.02 76.464C107.831 75.0987 108.641 73.6053 109.452 71.984C110.263 70.3627 111.031 68.8053 111.756 67.312C112.012 66.1173 112.311 64.688 112.652 63.024C113.036 61.36 113.441 59.5893 113.868 57.712C114.337 55.792 114.807 53.8293 115.276 51.824C115.788 49.776 116.257 47.7707 116.684 45.808C117.153 43.8027 117.58 41.9467 117.964 40.24C118.348 38.5333 118.689 37.04 118.988 35.76C117.58 35.632 116.129 35.5893 114.636 35.632C113.143 35.6747 111.244 35.76 108.94 35.888ZM131.005 62.64C131.474 62.512 132.221 62.5333 133.245 62.704L133.309 61.552C133.394 60.2293 133.65 58.9493 134.077 57.712C134.546 56.4747 135.165 55.408 135.933 54.512C136.701 53.616 137.639 52.912 138.749 52.4C139.901 51.8453 141.202 51.6107 142.653 51.696C144.061 51.824 145.213 52.3147 146.109 53.168C147.005 54.0213 147.666 55.152 148.093 56.56C148.562 57.9253 148.797 59.4827 148.797 61.232C148.839 62.9813 148.711 64.816 148.413 66.736C148.114 68.6133 147.687 70.4907 147.133 72.368C146.578 74.2453 145.917 75.9947 145.149 77.616C146.173 77.4027 147.133 76.9333 148.029 76.208C148.925 75.4827 149.757 74.608 150.525 73.584C151.293 72.56 151.954 71.4293 152.509 70.192C153.106 68.912 153.618 67.632 154.045 66.352C154.599 65.7973 155.133 65.776 155.645 66.288C156.157 66.8 156.285 67.4613 156.029 68.272C155.474 70.064 154.834 71.7493 154.109 73.328C153.383 74.864 152.53 76.208 151.549 77.36C150.567 78.4693 149.394 79.344 148.029 79.984C146.663 80.624 145.085 80.944 143.293 80.944C142.354 82.608 141.415 83.8667 140.477 84.72C139.581 85.5733 138.621 86.0213 137.597 86.064C135.591 86.1493 133.949 85.616 132.669 84.464C131.431 83.312 130.492 81.8827 129.852 80.176C129.17 78.4693 128.764 76.6133 128.636 74.608C128.508 72.6027 128.615 70.768 128.956 69.104C129.212 67.824 129.49 66.672 129.788 65.648C130.044 64.5813 130.45 63.5787 131.005 62.64ZM143.613 54.192C142.802 53.9787 142.034 54.2987 141.309 55.152C140.583 55.9627 139.943 57.1147 139.389 58.608C138.877 60.0587 138.493 61.7227 138.237 63.6C138.023 65.4347 137.981 67.248 138.109 69.04C138.237 70.7893 138.599 72.432 139.197 73.968C139.794 75.504 140.669 76.6347 141.821 77.36C142.717 75.3973 143.506 73.1573 144.189 70.64C144.871 68.08 145.341 65.648 145.597 63.344C145.895 60.9973 145.895 58.9707 145.597 57.264C145.341 55.5573 144.679 54.5333 143.613 54.192ZM140.541 79.664C139.559 79.1093 138.663 78.3413 137.853 77.36C137.042 76.336 136.359 75.2053 135.805 73.968C135.549 74.9493 135.357 75.9307 135.229 76.912C135.101 77.8507 135.079 78.704 135.165 79.472C135.25 80.24 135.442 80.88 135.741 81.392C136.082 81.8613 136.573 82.16 137.213 82.288C137.767 82.3733 138.322 82.1813 138.877 81.712C139.431 81.2427 139.986 80.56 140.541 79.664ZM155.192 62.64C155.661 62.512 156.408 62.5333 157.432 62.704L157.496 61.552C157.581 60.2293 157.837 58.9493 158.264 57.712C158.733 56.4747 159.352 55.408 160.12 54.512C160.888 53.616 161.827 52.912 162.936 52.4C164.088 51.8453 165.389 51.6107 166.84 51.696C168.248 51.824 169.4 52.3147 170.296 53.168C171.192 54.0213 171.853 55.152 172.28 56.56C172.749 57.9253 172.984 59.4827 172.984 61.232C173.027 62.9813 172.899 64.816 172.6 66.736C172.301 68.6133 171.875 70.4907 171.32 72.368C170.765 74.2453 170.104 75.9947 169.336 77.616C170.36 77.4027 171.32 76.9333 172.216 76.208C173.112 75.4827 173.944 74.608 174.712 73.584C175.48 72.56 176.141 71.4293 176.696 70.192C177.293 68.912 177.805 67.632 178.232 66.352C178.787 65.7973 179.32 65.776 179.832 66.288C180.344 66.8 180.472 67.4613 180.216 68.272C179.661 70.064 179.021 71.7493 178.296 73.328C177.571 74.864 176.717 76.208 175.736 77.36C174.755 78.4693 173.581 79.344 172.216 79.984C170.851 80.624 169.272 80.944 167.48 80.944C166.541 82.608 165.603 83.8667 164.664 84.72C163.768 85.5733 162.808 86.0213 161.784 86.064C159.779 86.1493 158.136 85.616 156.856 84.464C155.619 83.312 154.68 81.8827 154.04 80.176C153.357 78.4693 152.952 76.6133 152.824 74.608C152.696 72.6027 152.803 70.768 153.144 69.104C153.4 67.824 153.677 66.672 153.976 65.648C154.232 64.5813 154.637 63.5787 155.192 62.64ZM167.8 54.192C166.989 53.9787 166.221 54.2987 165.496 55.152C164.771 55.9627 164.131 57.1147 163.576 58.608C163.064 60.0587 162.68 61.7227 162.424 63.6C162.211 65.4347 162.168 67.248 162.296 69.04C162.424 70.7893 162.787 72.432 163.384 73.968C163.981 75.504 164.856 76.6347 166.008 77.36C166.904 75.3973 167.693 73.1573 168.376 70.64C169.059 68.08 169.528 65.648 169.784 63.344C170.083 60.9973 170.083 58.9707 169.784 57.264C169.528 55.5573 168.867 54.5333 167.8 54.192ZM164.728 79.664C163.747 79.1093 162.851 78.3413 162.04 77.36C161.229 76.336 160.547 75.2053 159.992 73.968C159.736 74.9493 159.544 75.9307 159.416 76.912C159.288 77.8507 159.267 78.704 159.352 79.472C159.437 80.24 159.629 80.88 159.928 81.392C160.269 81.8613 160.76 82.16 161.4 82.288C161.955 82.3733 162.509 82.1813 163.064 81.712C163.619 81.2427 164.173 80.56 164.728 79.664Z" fill="#F7FAFC"/>
</svg>
